<svg width="2000" height="800" xmlns="http://www.w3.org/2000/svg" version="1.1"><defs><style>.chro{stroke:#000000;fill:none;}.line{stroke:#000000;stroke-width:3.5px;}.leader_line{stroke:#000000;stroke-width:1px;}.feature_label{font-size:9px;text-anchor:middle;fill:#228B22;}.target_gene_label{font-size:9px;text-anchor:middle;fill:#FF0000;font-weight:bold;}</style></defs>
        <defs>
            <linearGradient id="grayPurpleRedGradient" x1="0%" y1="100%" x2="0%" y2="0%">
                <stop offset="0%" stop-color="rgb(200,200,200)"/>
                <stop offset="50%" stop-color="rgb(128,0,128)"/>
                <stop offset="100%" stop-color="rgb(255,0,0)"/>
            </linearGradient>
        </defs>
    <rect x="244.93041749502981" y="266.6666666666667" width="1510.1391650099404" height="15" class="chro"/><rect x="200.0" y="533.3333333333334" width="1600.0" height="15" class="chro"/><path d="M1123.2604373757454,281.6666666666667 C1123.2604373757454,449.44444444444446 1042.2796554009278,365.5555555555556 1042.2796554009278,533.3333333333334 L1675.5467196819086,533.3333333333334 C1675.5467196819086,365.5555555555556 1755.0695825049702,449.44444444444446 1755.0695825049702,281.6666666666667 Z" fill="rgb(255,0,0)" opacity="0.6"/><path d="M912.3923127899271,281.6666666666667 C912.3923127899271,449.44444444444446 1016.5672630881378,365.5555555555556 1016.5672630881378,533.3333333333334 L1042.544731610338,533.3333333333334 C1042.544731610338,365.5555555555556 938.3697813121272,449.44444444444446 938.3697813121272,281.6666666666667 Z" fill="rgb(196,188,196)" opacity="0.6"/><path d="M1688.5354539430086,281.6666666666667 C1688.5354539430086,449.44444444444446 1603.4459907223327,365.5555555555556 1603.4459907223327,533.3333333333334 L1613.3863485752154,533.3333333333334 C1613.3863485752154,365.5555555555556 1698.4758117958913,449.44444444444446 1698.4758117958913,281.6666666666667 Z" fill="rgb(200,200,200)" opacity="0.6"/><path d="M1682.9688535453943,281.6666666666667 C1682.9688535453943,449.44444444444446 1609.012591119947,365.5555555555556 1609.012591119947,533.3333333333334 L1618.9529489728297,533.3333333333334 C1618.9529489728297,365.5555555555556 1692.909211398277,449.44444444444446 1692.909211398277,281.6666666666667 Z" fill="rgb(200,200,200)" opacity="0.6"/><rect x="244.93041749502981" y="224.66666666666669" width="196.2889330682571" height="12" fill="#1E90FF" fill-opacity="0.5" stroke="#00008B" stroke-width="0.5"/><polygon points="244.93041749502981,227.0666666666667 252.1304174950298,230.66666666666669 244.93041749502981,234.26666666666668" fill="white" /><line x1="343.0748840291584" y1="224.66666666666669" x2="343.0748840291584" y2="209.66666666666669" stroke="black" stroke-width="1"/><text x="343.0748840291584" y="207.66666666666669" fill="black" font-size="8" text-anchor="middle">RIREXE_I</text><rect x="439.7614314115308" y="210.66666666666669" width="257.38899933730954" height="12" fill="#1E90FF" fill-opacity="0.5" stroke="#00008B" stroke-width="0.5"/><polygon points="439.7614314115308,213.0666666666667 446.9614314115308,216.66666666666669 439.7614314115308,220.26666666666668" fill="white" /><line x1="568.4559310801856" y1="210.66666666666669" x2="568.4559310801856" y2="180.66666666666669" stroke="black" stroke-width="1"/><text x="568.4559310801856" y="178.66666666666669" fill="black" font-size="8" text-anchor="middle">RIREXE_I</text><rect x="845.5931080185553" y="224.66666666666669" width="8.614976805831702" height="12" fill="#1E90FF" fill-opacity="0.5" stroke="#00008B" stroke-width="0.5"/><polygon points="845.5931080185553,227.0666666666667 852.7931080185554,230.66666666666669 845.5931080185553,234.26666666666668" fill="white" /><line x1="849.9005964214712" y1="224.66666666666669" x2="849.9005964214712" y2="209.66666666666669" stroke="black" stroke-width="1"/><text x="849.9005964214712" y="207.66666666666669" fill="black" font-size="8" text-anchor="middle">RIREXE_I</text><rect x="854.208084824387" y="210.66666666666669" width="58.18422796554012" height="12" fill="#1E90FF" fill-opacity="0.5" stroke="#00008B" stroke-width="0.5"/><polygon points="854.208084824387,213.0666666666667 861.4080848243871,216.66666666666669 854.208084824387,220.26666666666668" fill="white" /><line x1="883.3001988071571" y1="210.66666666666669" x2="883.3001988071571" y2="180.66666666666669" stroke="black" stroke-width="1"/><text x="883.3001988071571" y="178.66666666666669" fill="black" font-size="8" text-anchor="middle">RIREX_LTR</text><rect x="200.0" y="578.3333333333334" width="512.2597746852219" height="12" fill="#1E90FF" fill-opacity="0.5" stroke="#00008B" stroke-width="0.5"/><polygon points="200.0,580.7333333333333 207.2,584.3333333333334 200.0,587.9333333333334" fill="white" /><line x1="456.12988734261097" y1="590.3333333333334" x2="456.12988734261097" y2="605.3333333333334" stroke="black" stroke-width="1"/><text x="456.12988734261097" y="617.3333333333334" fill="black" font-size="8" text-anchor="middle">RETRO2A_I</text><rect x="714.5129224652087" y="578.3333333333334" width="143.53876739562634" height="12" fill="#1E90FF" fill-opacity="0.5" stroke="#00008B" stroke-width="0.5"/><polygon points="714.5129224652087,580.7333333333333 721.7129224652087,584.3333333333334 714.5129224652087,587.9333333333334" fill="white" /><line x1="786.2823061630219" y1="590.3333333333334" x2="786.2823061630219" y2="605.3333333333334" stroke="black" stroke-width="1"/><text x="786.2823061630219" y="617.3333333333334" fill="black" font-size="8" text-anchor="middle">RETRO2A_LTR</text><rect x="907.6209410205433" y="266.6666666666667" width="42.67726971504317" height="15" fill="#FF0000" stroke="white" stroke-width="0.5"/><path d="M1088.5354539430086,266.6666666666667 L1091.6103379721671,266.6666666666667 L1092.3790589794567,274.1666666666667 L1091.6103379721671,281.6666666666667 L1088.5354539430086,281.6666666666667 Z" fill="#FF0000" stroke="white" stroke-width="0.5"/><line x1="950.2982107355865" y1="274.1666666666667" x2="1088.5354539430086" y2="274.1666666666667" stroke="#FF0000" stroke-width="1.5"/><path d="M1680.9807819748178,266.6666666666667 L1740.2518223989398,266.6666666666667 L1755.0695825049702,274.1666666666667 L1740.2518223989398,281.6666666666667 L1680.9807819748178,281.6666666666667 Z" fill="#228B22" stroke="white" stroke-width="0.5"/><rect x="1601.4579191517562" y="533.3333333333334" width="79.25778661365143" height="15" fill="#228B22" stroke="white" stroke-width="0.5"/><rect x="1690.6560636182903" y="533.3333333333334" width="14.579191517561185" height="15" fill="#228B22" stroke="white" stroke-width="0.5"/><rect x="1715.5732273028495" y="533.3333333333334" width="10.205434062292852" height="15" fill="#228B22" stroke="white" stroke-width="0.5"/><rect x="1735.8515573227303" y="533.3333333333334" width="12.458581842279727" height="15" fill="#228B22" stroke="white" stroke-width="0.5"/><rect x="1766.8654738237244" y="533.3333333333334" width="16.434724983432716" height="15" fill="#228B22" stroke="white" stroke-width="0.5"/><path d="M1796.4214711729621,533.3333333333334 L1799.2842942345924,533.3333333333334 L1800.0,540.8333333333334 L1799.2842942345924,548.3333333333334 L1796.4214711729621,548.3333333333334 Z" fill="#228B22" stroke="white" stroke-width="0.5"/><line x1="1680.7157057654076" y1="540.8333333333334" x2="1690.6560636182903" y2="540.8333333333334" stroke="#228B22" stroke-width="1.5"/><line x1="1705.2352551358515" y1="540.8333333333334" x2="1715.5732273028495" y2="540.8333333333334" stroke="#228B22" stroke-width="1.5"/><line x1="1725.7786613651424" y1="540.8333333333334" x2="1735.8515573227303" y2="540.8333333333334" stroke="#228B22" stroke-width="1.5"/><line x1="1748.31013916501" y1="540.8333333333334" x2="1766.8654738237244" y2="540.8333333333334" stroke="#228B22" stroke-width="1.5"/><line x1="1783.3001988071571" y1="540.8333333333334" x2="1796.4214711729621" y2="540.8333333333334" stroke="#228B22" stroke-width="1.5"/><rect x="862.6905235255135" y="533.3333333333334" width="180.78197481776033" height="15" fill="#FF0000" stroke="white" stroke-width="0.5"/><path d="M1121.272365805169,533.3333333333334 L1134.102054340623,533.3333333333334 L1137.3094764744865,540.8333333333334 L1134.102054340623,548.3333333333334 L1121.272365805169,548.3333333333334 Z" fill="#FF0000" stroke="white" stroke-width="0.5"/><line x1="1043.4724983432739" y1="540.8333333333334" x2="1121.272365805169" y2="540.8333333333334" stroke="#FF0000" stroke-width="1.5"/><rect x="200.0" y="533.3333333333334" width="149.37044400265074" height="15" fill="#228B22" stroke="white" stroke-width="0.5"/><path d="M361.6964877402253,533.3333333333334 L561.2458581842279,533.3333333333334 L611.1332007952286,540.8333333333334 L561.2458581842279,548.3333333333334 L361.6964877402253,548.3333333333334 Z" fill="#228B22" stroke="white" stroke-width="0.5"/><line x1="349.37044400265074" y1="540.8333333333334" x2="361.6964877402253" y2="540.8333333333334" stroke="#228B22" stroke-width="1.5"/><line x1="1000.0" y1="281.6666666666667" x2="1000.0" y2="296.6666666666667" class="leader_line"/><text x="1000.0" y="301.6666666666667" class="target_gene_label">LOC_Os06g50440</text><line x1="1718.025182239894" y1="281.6666666666667" x2="1718.025182239894" y2="296.6666666666667" class="leader_line"/><text x="1718.025182239894" y="301.6666666666667" class="feature_label">LOC_Os06g50450</text><line x1="1700.728959575878" y1="548.3333333333334" x2="1700.728959575878" y2="563.3333333333334" class="leader_line"/><text x="1700.728959575878" y="568.3333333333334" class="feature_label">LOC_Os06g50780</text><line x1="1000.0" y1="548.3333333333334" x2="1000.0" y2="563.3333333333334" class="leader_line"/><text x="1000.0" y="568.3333333333334" class="target_gene_label">LOC_Os06g50789</text><line x1="405.5666003976143" y1="548.3333333333334" x2="405.5666003976143" y2="563.3333333333334" class="leader_line"/><text x="405.5666003976143" y="568.3333333333334" class="feature_label">LOC_Os06g50800</text><polyline points="1600.0,715.0 1600.0,720.0 1865.0762094102054,720.0 1865.0762094102054,715.0" fill="none" stroke="black" class="scale"/><text x="1688.3587364700684" y="710.0" fill="black" font-size="18" class="scale-text">2000 bp</text><text x="74.93041749502981" y="251.66666666666669" fill="black" font-size="12" class="pos_label">Chr6: 10,001 - 21,394</text><text x="30.0" y="518.3333333333334" fill="black" font-size="12" class="pos_label">Chr6: 208,928 - 220,999</text><rect x="1900" y="266.6666666666667" width="25" height="281.6666666666667" fill="url(#grayPurpleRedGradient)" stroke="black" stroke-width="1"/><text x="1930" y="278.6666666666667" fill="black" font-size="10" text-anchor="start">8619.0</text><text x="1930" y="543.3333333333334" fill="black" font-size="10" text-anchor="start">122.0</text><text x="1900" y="256.6666666666667" fill="black" font-size="11" text-anchor="start">Bitscore</text></svg>